<?xml version="1.0" encoding="utf-8"?>
<!-- Generated by IcoMoon.io -->
<!DOCTYPE svg PUBLIC "-//W3C//DTD SVG 1.1//EN" "http://www.w3.org/Graphics/SVG/1.1/DTD/svg11.dtd">
<svg version="1.1" xmlns="http://www.w3.org/2000/svg" xmlns:xlink="http://www.w3.org/1999/xlink" width="512" height="512" viewBox="0 0 512 512">
<g>
</g>
	<path d="M199.68 314.137l-102.4-40.986v34.663l102.4 40.986v-34.663zM199.68 207.769l-102.4-40.96v34.662l102.4 40.96v-34.662zM475.161 30.003c-7.014-4.761-15.974-5.735-23.859-2.585l-195.303 78.131-195.303-78.131c-7.885-3.149-16.819-2.176-23.859 2.585-7.014 4.762-11.239 12.698-11.239 21.197v327.68c0 10.471 6.375 19.865 16.077 23.783l204.365 81.741c0 0 4.198 1.357 4.966 1.51 1.664 0.307 3.328 0.486 4.992 0.486 1.639 0 3.328-0.179 4.966-0.512 0.768-0.154 4.966-1.536 4.966-1.536l204.339-81.715c9.753-3.891 16.128-13.286 16.128-23.757v-327.68c0-8.499-4.224-16.435-11.238-21.197zM230.4 434.022l-163.84-65.536v-286.925l163.84 65.561v286.899zM445.44 368.512l-163.84 65.536v-286.925l163.84-65.561v286.95zM414.72 273.152l-102.425 40.986v34.663l102.425-40.986v-34.663zM414.72 166.81l-102.425 40.96v34.662l102.425-40.96v-34.662z" fill="#000000" />
</svg>
